<svg width="200" height="200" viewBox="0 0 200 200" fill="none" xmlns="http://www.w3.org/2000/svg">
  <!-- Empty folder icon -->
  <rect x="40" y="60" width="120" height="80" rx="8" fill="#f3f4f6" stroke="#d1d5db" stroke-width="2"/>
  <rect x="60" y="50" width="80" height="10" rx="4" fill="#d1d5db"/>
  
  <!-- Document icons -->
  <rect x="70" y="80" width="20" height="25" rx="2" fill="#e5e7eb" stroke="#d1d5db"/>
  <rect x="100" y="80" width="20" height="25" rx="2" fill="#e5e7eb" stroke="#d1d5db"/>
  <rect x="130" y="80" width="20" height="25" rx="2" fill="#e5e7eb" stroke="#d1d5db"/>
  
  <!-- Lines on documents -->
  <line x1="75" y1="87" x2="85" y2="87" stroke="#d1d5db" stroke-width="1"/>
  <line x1="75" y1="92" x2="85" y2="92" stroke="#d1d5db" stroke-width="1"/>
  <line x1="75" y1="97" x2="85" y2="97" stroke="#d1d5db" stroke-width="1"/>
  
  <line x1="105" y1="87" x2="115" y2="87" stroke="#d1d5db" stroke-width="1"/>
  <line x1="105" y1="92" x2="115" y2="92" stroke="#d1d5db" stroke-width="1"/>
  <line x1="105" y1="97" x2="115" y2="97" stroke="#d1d5db" stroke-width="1"/>
  
  <line x1="135" y1="87" x2="145" y2="87" stroke="#d1d5db" stroke-width="1"/>
  <line x1="135" y1="92" x2="145" y2="92" stroke="#d1d5db" stroke-width="1"/>
  <line x1="135" y1="97" x2="145" y2="97" stroke="#d1d5db" stroke-width="1"/>
  
  <!-- Empty state text -->
  <text x="100" y="170" text-anchor="middle" font-family="Arial, sans-serif" font-size="14" fill="#6b7280">No projects found</text>
</svg>
